<?xml version="1.0" standalone="no"?>
<!DOCTYPE svg PUBLIC "-//W3C//DTD SVG 20010904//EN"
 "http://www.w3.org/TR/2001/REC-SVG-20010904/DTD/svg10.dtd">
<svg version="1.0" xmlns="http://www.w3.org/2000/svg"
 width="322.000000pt" height="322.000000pt" viewBox="0 0 322.000000 322.000000"
 preserveAspectRatio="xMidYMid meet">
<metadata>
Created by potrace 1.14, written by Peter Selinger 2001-2017
</metadata>
<g transform="translate(0.000000,322.000000) scale(0.100000,-0.100000)"
fill="#000000" stroke="none">
<path d="M875 2898 c-18 -50 -869 -2557 -873 -2570 -4 -17 16 -18 325 -18
l330 0 12 42 c7 24 35 114 63 201 l50 157 264 0 264 0 0 -200 0 -200 305 0
305 0 0 405 0 405 213 0 c298 0 438 25 597 105 139 70 285 207 365 342 92 158
137 369 116 547 -46 395 -334 707 -720 780 -71 14 -192 16 -847 16 -603 0
-766 -3 -769 -12z m1561 -580 c69 -37 140 -117 159 -181 19 -65 19 -181 0
-238 -23 -67 -83 -138 -145 -173 l-55 -31 -237 -3 -238 -3 0 331 0 332 233 -4
c229 -3 233 -3 283 -30z m-1126 -528 l0 -510 -170 0 c-93 0 -170 3 -170 7 0
10 334 1013 337 1013 2 0 3 -229 3 -510z"/>
</g>
</svg>
